<?xml version="1.0" encoding="UTF-8"?>
<svg preserveAspectRatio="xMidYMid slice" xmlns="http://www.w3.org/2000/svg" width="240px" height="239px" viewBox="0 0 717 716" fill="none">
  <g id="Main Component">
    <g id="Background" clip-path="url(#clip0_1451_38061)">
      <rect id="Background_2" x="0.482422" width="716" height="716" fill=""></rect>
    </g>
  </g>
  <defs>
    <clipPath id="clip0_1451_38061">
      <rect width="716" height="716" fill="white" transform="translate(0.482422)"></rect>
    </clipPath>
  </defs>
  <g id="Main Component">
    <g id="Monkey Body" clip-path="url(#clip0_1451_41337)">
      <g id="Vector">
        <path d="M220.482 246C220.482 196.295 222.355 192.313 265.956 168.446C321.28 138.161 404.36 132.429 458.945 137.16C514.954 142.015 531.481 160.863 531.481 194V462C531.481 511.706 490.187 552 440.482 552L346.915 555.275C346.915 560.006 356.009 586.533 369.941 592.003C410.783 600.387 469.9 596.692 497.769 608.771C536.56 625.582 531.007 694.415 539.842 729.755C522.62 746.742 142.055 731.23 132.755 734.933C118.755 740.506 132.755 640.65 156.023 619.497C153.113 614.373 223.88 574.544 222.349 555.167C219.097 514.003 220.482 455.412 220.482 442V246Z" fill="#DB4A4A" id="Vector"></path>
        <path d="M550.482 283.003C550.482 248.232 521.019 230.742 486.332 233.147L401.482 238.683L321.632 233.147C286.944 230.742 257.482 258.232 257.482 293.003V318.075C257.482 351.212 284.345 378.075 317.482 378.075H319.941C324.912 378.075 328.941 382.105 328.941 387.075V465C328.941 498.137 355.804 532 388.941 532H443.358C476.495 532 508.358 499.137 508.358 466V379.989C508.358 376.05 510.951 372.631 514.558 371.049C535.708 361.773 550.482 335.65 550.482 311.075V283.003Z" fill="#DB4A4A" id="Vector"></path>
        <path d="M110.112 302.983C110.112 343.307 142.801 375.996 183.125 375.996C202.071 375.996 219.332 368.779 232.309 356.945V249.022C219.332 237.187 202.071 229.971 183.125 229.971C142.801 229.971 110.112 262.66 110.112 302.983Z" fill="#DB4A4A" id="Vector"></path>
        <path d="M598.148 303.858C613.932 335.787 597.424 376.156 561.276 394.026C544.292 402.423 526.994 404.358 510.729 400.738L467.484 315.284C474.484 300.163 488.132 286.8 505.117 278.403C541.265 260.533 582.364 271.93 598.148 303.858Z" fill="#DB4A4A" id="Vector"></path>
      </g>
      <path id="Ellipse 4" d="M531.725 402.273C541.796 401.57 551.437 398.89 561.277 394.026C597.425 376.156 613.933 335.786 598.149 303.858C588.731 284.808 569.946 273.067 548.647 270.49" stroke="black" stroke-width="8" stroke-linecap="round"></path>
      <path id="Ellipse 5" d="M555.733 367.726C576.791 357.315 586.408 333.797 577.213 315.196C572.376 305.413 563.298 298.938 552.714 296.513" stroke="black" stroke-width="8" stroke-linecap="round"></path>
      <path id="Vector 29" d="M279.672 585.16C281.832 584.697 283.959 586.072 284.422 588.232C284.885 590.392 283.51 592.519 281.35 592.982L279.672 585.16ZM212.346 600.976C210.27 601.731 207.975 600.66 207.22 598.584C206.465 596.508 207.536 594.213 209.612 593.458L212.346 600.976ZM281.35 592.982C264.204 596.66 254.982 595.502 246.129 595.078C237.708 594.674 229.139 594.87 212.346 600.976L209.612 593.458C227.479 586.962 237.114 586.637 246.512 587.087C255.479 587.517 263.693 588.587 279.672 585.16L281.35 592.982Z" fill="black"></path>
      <path id="Vector 30" d="M337.674 585.16C335.514 584.697 333.387 586.072 332.924 588.232C332.461 590.392 333.836 592.519 335.996 592.982L337.674 585.16ZM398.659 599.012C400.862 599.171 402.777 597.513 402.935 595.31C403.094 593.106 401.436 591.191 399.233 591.033L398.659 599.012ZM335.996 592.982C369.45 600.158 365.563 596.63 398.659 599.012L399.233 591.033C364.672 588.545 370.469 592.194 337.674 585.16L335.996 592.982Z" fill="black"></path>
      <path id="Vector 6" d="M363.109 590.61C363.109 590.61 291.912 547.594 285.488 514.384C316.632 553.4 339.809 553.4 344.516 553.4C349.224 553.4 363.109 590.61 363.109 590.61Z" fill="#993434"></path>
      <path id="Vector 4" d="M296.51 639.452L267.412 716.365C259.874 736.292 275.907 757.148 298.245 756.469L424.387 752.639C444.327 752.033 458.669 734.345 453.758 716.031C447.04 690.97 437.56 657.685 428.635 633.628C423.571 619.978 407.927 621.08 402.44 634.582C395.898 650.684 366.641 653.772 353.753 641.58C348.957 637.044 344.042 632.652 339.316 628.578C325.118 616.339 302.985 622.334 296.51 639.452Z" fill="#E46D6D"></path>
      <path id="Vector 8" d="M236.169 686.937C236.169 686.937 289.022 751.17 284.043 784.627C267.637 737.478 245.778 729.775 241.338 728.21C236.898 726.646 236.169 686.937 236.169 686.937Z" fill="#993434"></path>
      <path id="Vector" d="M260.94 170.535L262.675 174.139L262.675 174.139L260.94 170.535ZM471.482 137L471.482 141L471.482 137ZM532.317 244.399L534.734 241.212L534.734 241.212L532.317 244.399ZM532.376 361.127L534.688 364.392L534.688 364.391L532.376 361.127ZM260.062 477.497C258.889 475.625 256.42 475.058 254.548 476.231C252.676 477.404 252.109 479.873 253.282 481.745L260.062 477.497ZM193.673 591.339L195.638 594.824L195.638 594.824L193.673 591.339ZM149.598 624.727L146.2 622.618L146.2 622.618L149.598 624.727ZM130.815 774.775L134.813 774.653L134.813 774.653L130.815 774.775ZM126.883 777.091C126.95 779.3 128.794 781.035 131.002 780.968C133.211 780.901 134.946 779.057 134.879 776.849L126.883 777.091ZM221.369 227.155L217.369 227.164L217.369 227.164L221.369 227.155ZM217.482 239C217.482 241.209 219.273 243 221.482 243C223.691 243 225.482 241.209 225.482 239H217.482ZM225.482 367.859C225.482 365.65 223.691 363.859 221.482 363.859C219.273 363.859 217.482 365.65 217.482 367.859H225.482ZM262.675 174.139C346.057 133.988 388.027 141 471.482 141L471.482 133C388.487 133 344.541 125.839 259.204 166.931L262.675 174.139ZM441.482 551H356.008V559H441.482V551ZM527.482 465C527.482 512.496 488.978 551 441.482 551V559C493.397 559 535.482 516.915 535.482 465H527.482ZM471.482 141C502.41 141 527.482 166.072 527.482 197H535.482C535.482 161.653 506.828 133 471.482 133L471.482 141ZM529.9 247.586C535.54 251.863 540.202 259.551 543.471 269.524C546.714 279.417 548.443 291.134 548.534 302.919C548.625 314.707 547.077 326.383 543.897 336.203C540.694 346.093 535.98 353.673 530.064 357.863L534.688 364.391C542.576 358.804 548.035 349.389 551.508 338.668C555.002 327.875 556.63 315.321 556.534 302.857C556.437 290.391 554.614 277.836 551.073 267.033C547.559 256.31 542.206 246.879 534.734 241.212L529.9 247.586ZM356.008 551C331.716 551 307.902 533.276 289.669 514.522C280.666 505.261 273.248 495.984 268.079 489.016C265.497 485.535 263.482 482.639 262.117 480.62C261.435 479.61 260.916 478.821 260.57 478.288C260.396 478.022 260.267 477.82 260.182 477.686C260.139 477.62 260.108 477.57 260.088 477.538C260.078 477.522 260.07 477.511 260.066 477.504C260.064 477.501 260.062 477.498 260.062 477.497C260.061 477.496 260.061 477.496 260.061 477.496C260.061 477.496 260.062 477.497 256.672 479.621C253.282 481.745 253.283 481.746 253.284 481.747C253.285 481.748 253.286 481.75 253.287 481.751C253.289 481.755 253.292 481.759 253.295 481.765C253.302 481.776 253.312 481.792 253.325 481.813C253.351 481.853 253.388 481.912 253.437 481.988C253.533 482.14 253.675 482.361 253.861 482.646C254.232 483.218 254.778 484.048 255.489 485.1C256.911 487.203 258.994 490.196 261.654 493.782C266.968 500.947 274.615 510.515 283.933 520.099C302.342 539.034 328.196 559 356.008 559V551ZM191.709 587.855C183.095 592.712 173.734 598.229 165.587 604.037C157.531 609.779 150.255 616.085 146.2 622.618L152.997 626.837C156.175 621.716 162.351 616.168 170.231 610.551C178.021 604.998 187.08 599.649 195.638 594.824L191.709 587.855ZM146.2 622.618C134.624 641.267 129.313 662.649 127.113 687.618C124.918 712.528 125.798 741.34 126.816 774.896L134.813 774.653C133.79 740.948 132.938 712.659 135.082 688.32C137.222 664.042 142.324 644.031 152.997 626.837L146.2 622.618ZM126.816 774.896L126.883 777.091L134.879 776.849L134.813 774.653L126.816 774.896ZM535.482 242.748V197H527.482V242.748H535.482ZM527.482 362.82V465H535.482V362.82H527.482ZM259.204 166.931C246.867 172.872 236.294 179.525 228.863 189.03C221.344 198.648 217.333 210.8 217.369 227.164L225.369 227.146C225.336 212.203 228.959 201.897 235.166 193.958C241.461 185.906 250.707 179.902 262.675 174.139L259.204 166.931ZM217.369 227.164C217.375 230.041 217.404 231.124 217.431 232.427C217.457 233.693 217.482 235.206 217.482 239H225.482C225.482 235.161 225.456 233.592 225.429 232.262C225.402 230.972 225.375 229.948 225.369 227.146L217.369 227.164ZM225.482 542.712V390.432H217.482V542.712H225.482ZM225.482 390.432V367.859H217.482V390.432H225.482ZM530.064 357.863C528.514 358.961 527.482 360.771 527.482 362.82H535.482C535.482 363.514 535.131 364.077 534.688 364.392L530.064 357.863ZM534.734 241.212C535.159 241.534 535.482 242.086 535.482 242.748H527.482C527.482 244.716 528.434 246.474 529.9 247.586L534.734 241.212ZM195.638 594.824C214.814 584.012 225.482 564.559 225.482 542.712H217.482C217.482 561.841 208.226 578.542 191.709 587.855L195.638 594.824Z" fill="black"></path>
      <path id="Ellipse 2" d="M229.983 252.316C231.605 253.817 234.135 253.719 235.636 252.097C237.136 250.476 237.038 247.945 235.416 246.445L229.983 252.316ZM235.416 359.522C237.038 358.021 237.136 355.491 235.636 353.869C234.135 352.248 231.605 352.149 229.983 353.65L235.416 359.522ZM183.125 371.996C145.01 371.996 114.112 341.098 114.112 302.983H106.112C106.112 345.516 140.592 379.996 183.125 379.996V371.996ZM114.112 302.983C114.112 264.868 145.01 233.97 183.125 233.97V225.97C140.592 225.97 106.112 260.45 106.112 302.983H114.112ZM183.125 233.97C201.216 233.97 217.673 240.926 229.983 252.316L235.416 246.445C221.686 233.74 203.309 225.97 183.125 225.97V233.97ZM229.983 353.65C217.673 365.04 201.216 371.996 183.125 371.996V379.996C203.309 379.996 221.686 372.226 235.416 359.522L229.983 353.65Z" fill="black"></path>
      <path id="Ellipse 3" d="M181.926 346.739C179.718 346.664 177.867 348.393 177.792 350.601C177.717 352.809 179.446 354.66 181.654 354.734L181.926 346.739ZM131.203 296.356C130.957 298.552 132.538 300.531 134.733 300.776C136.929 301.022 138.908 299.442 139.154 297.246L131.203 296.356ZM154.296 268.508C172.911 252.42 201.044 254.469 217.132 273.085L223.185 267.854C204.208 245.896 171.023 243.478 149.065 262.455L154.296 268.508ZM217.132 273.085C233.22 291.701 231.17 319.833 212.555 335.921L217.786 341.974C239.744 322.997 242.162 289.813 223.185 267.854L217.132 273.085ZM212.555 335.921C203.718 343.558 192.747 347.106 181.926 346.739L181.654 354.734C194.409 355.168 207.366 350.979 217.786 341.974L212.555 335.921ZM139.154 297.246C140.358 286.486 145.459 276.145 154.296 268.508L149.065 262.455C138.645 271.46 132.623 283.673 131.203 296.356L139.154 297.246Z" fill="black"></path>
      <path id="Vector 1" d="M347.502 555.267V555.267C347.502 574.413 361.791 590.547 380.797 592.861L482.6 605.253C505.173 608.001 523.049 625.635 526.104 648.168L546.252 796.75" stroke="black" stroke-width="8"></path>
      <path id="Vector 3" d="M485.825 689.152C485.396 686.984 483.292 685.575 481.125 686.004C478.958 686.433 477.549 688.538 477.977 690.705L485.825 689.152ZM482.256 747.882C482.256 750.092 484.047 751.882 486.256 751.882C488.465 751.882 490.256 750.092 490.256 747.882H482.256ZM477.977 690.705C483.778 720.014 482.256 728.028 482.256 747.882H490.256C490.256 728.266 491.81 719.39 485.825 689.152L477.977 690.705Z" fill="black"></path>
      <path id="Vector 7" d="M237.825 689.152C237.396 686.985 235.292 685.575 233.125 686.004C230.958 686.433 229.549 688.538 229.977 690.705L237.825 689.152ZM234.256 747.883C234.256 750.092 236.047 751.883 238.256 751.883C240.465 751.883 242.256 750.092 242.256 747.883H234.256ZM229.977 690.705C235.778 720.014 234.256 728.028 234.256 747.883H242.256C242.256 728.266 243.81 719.39 237.825 689.152L229.977 690.705Z" fill="black"></path>
      <path id="Vector" d="M538.482 291.039C538.482 256.268 509.02 234.778 474.332 237.183C432.652 246.758 389.451 247.687 347.398 239.912L332.633 237.183C297.945 234.778 268.482 262.268 268.482 297.039V338.111C268.482 371.248 270.345 398.111 303.482 398.111H305.942C310.912 398.111 314.942 402.141 314.942 407.111V470.036C314.942 503.174 341.805 530.037 374.942 530.037H452.358C485.495 530.037 512.358 503.174 512.358 470.037V365.185C512.358 362.056 514.227 359.226 516.902 357.602C523.058 353.864 533.545 345.729 535.83 332.705C539.111 314.004 538.482 291.039 538.482 291.039Z" fill="#E46D6D"></path>
    </g>
  </g>
  <defs>
    <clipPath id="clip0_1451_41337">
      <rect width="716" height="716" fill="white" transform="translate(0.482422)"></rect>
    </clipPath>
  </defs>
  <g id="Main Component">
    <g id="Clothing" clip-path="url(#clip0_1451_59698)">
      <g id="Vector 105">
        <path d="M185.983 546C185.983 546 220.483 545 220.483 526C220.483 526 209.321 526.601 202.483 528.5C184.483 533.5 185.983 546 185.983 546Z" fill="black"></path>
        <path d="M220.483 526H220.983V525.472L220.456 525.501L220.483 526ZM185.983 546L185.486 546.06L185.541 546.513L185.997 546.5L185.983 546ZM202.483 528.5L202.349 528.018L202.349 528.018L202.483 528.5ZM219.983 526C219.983 530.575 217.914 534.07 214.767 536.761C211.607 539.463 207.368 541.344 203.087 542.647C198.812 543.948 194.53 544.662 191.313 545.05C189.706 545.245 188.367 545.357 187.431 545.421C186.963 545.453 186.596 545.473 186.347 545.485C186.222 545.491 186.127 545.494 186.063 545.497C186.031 545.498 186.007 545.499 185.991 545.499C185.983 545.5 185.977 545.5 185.973 545.5C185.972 545.5 185.97 545.5 185.969 545.5C185.969 545.5 185.969 545.5 185.968 545.5C185.968 545.5 185.968 545.5 185.983 546C185.997 546.5 185.998 546.5 185.998 546.5C185.998 546.5 185.999 546.5 185.999 546.5C186.001 546.5 186.002 546.5 186.005 546.5C186.009 546.499 186.016 546.499 186.024 546.499C186.042 546.498 186.067 546.497 186.101 546.496C186.167 546.494 186.266 546.49 186.394 546.484C186.65 546.471 187.024 546.451 187.499 546.419C188.45 546.354 189.806 546.24 191.433 546.043C194.685 545.651 199.029 544.927 203.378 543.603C207.722 542.281 212.109 540.35 215.417 537.521C218.739 534.68 220.983 530.925 220.983 526H219.983ZM185.983 546C186.479 545.94 186.479 545.941 186.479 545.941C186.479 545.941 186.479 545.941 186.479 545.941C186.479 545.941 186.479 545.941 186.479 545.941C186.479 545.94 186.479 545.939 186.479 545.937C186.478 545.933 186.478 545.926 186.477 545.916C186.475 545.896 186.472 545.865 186.469 545.823C186.463 545.739 186.456 545.611 186.453 545.445C186.448 545.112 186.459 544.626 186.526 544.025C186.662 542.822 187.023 541.162 187.93 539.349C189.734 535.74 193.736 531.449 202.617 528.982L202.349 528.018C193.23 530.551 188.981 535.01 187.036 538.901C186.067 540.838 185.679 542.616 185.533 543.913C185.46 544.561 185.447 545.091 185.454 545.461C185.457 545.647 185.464 545.793 185.472 545.894C185.475 545.944 185.479 545.984 185.481 546.012C185.483 546.026 185.484 546.037 185.485 546.045C185.485 546.049 185.485 546.052 185.486 546.054C185.486 546.056 185.486 546.057 185.486 546.058C185.486 546.058 185.486 546.059 185.486 546.059C185.486 546.059 185.486 546.06 185.983 546ZM202.617 528.982C205.994 528.044 210.46 527.422 214.1 527.035C215.916 526.842 217.52 526.708 218.669 526.622C219.244 526.579 219.704 526.549 220.021 526.529C220.18 526.519 220.302 526.511 220.385 526.506C220.426 526.504 220.457 526.502 220.478 526.501C220.489 526.5 220.497 526.5 220.502 526.5C220.505 526.5 220.507 526.499 220.508 526.499C220.508 526.499 220.509 526.499 220.509 526.499C220.509 526.499 220.509 526.499 220.51 526.499C220.51 526.499 220.51 526.499 220.483 526C220.456 525.501 220.456 525.501 220.456 525.501C220.456 525.501 220.455 525.501 220.455 525.501C220.455 525.501 220.454 525.501 220.454 525.501C220.452 525.501 220.45 525.501 220.447 525.501C220.442 525.501 220.433 525.502 220.423 525.503C220.401 525.504 220.369 525.506 220.327 525.508C220.242 525.513 220.118 525.52 219.958 525.531C219.638 525.551 219.173 525.582 218.595 525.625C217.437 525.711 215.823 525.846 213.994 526.041C210.344 526.429 205.81 527.057 202.349 528.018L202.617 528.982Z" fill="black"></path>
      </g>
      <g id="Rectangle 30">
        <path d="M521.776 635.472C521.734 635.662 521.708 635.857 521.702 636.047C520.586 669.87 488.865 704.841 468.427 692.127C462.647 688.531 439.51 618.251 440.049 598.943C440.454 584.407 497.69 595.638 501.755 596.454C501.919 596.487 502.04 596.538 502.18 596.634C504.507 598.238 526.509 614.05 521.776 635.472Z" fill="#1B2580" id="Rectangle 30"></path>
        <path d="M468.427 692.127L466.507 696.159L466.507 696.159L468.427 692.127ZM440.049 598.943L436.532 599.453L440.049 598.943ZM501.755 596.454L500.706 600.832L501.755 596.454ZM502.18 596.634L504.208 592.673L502.18 596.634ZM521.702 636.047L518.187 636.528L521.702 636.047ZM521.776 635.472L518.394 634.901L521.776 635.472ZM518.187 636.528C517.682 651.819 510.193 667.724 500.275 678.349C490.307 689.028 478.898 693.414 470.347 688.095L466.507 696.159C478.395 703.554 493.065 696.812 504.346 684.727C515.677 672.589 524.606 654.097 525.218 635.565L518.187 636.528ZM470.347 688.095C470.525 688.206 470.399 688.181 469.966 687.543C469.59 686.989 469.12 686.182 468.565 685.103C467.458 682.95 466.134 679.96 464.669 676.317C461.746 669.046 458.365 659.428 455.168 649.285C451.972 639.143 448.983 628.549 446.833 619.331C444.638 609.923 443.452 602.493 443.565 598.434L436.532 599.453C436.376 605.048 437.881 613.644 440.053 622.955C442.27 632.458 445.326 643.279 448.569 653.569C451.812 663.859 455.265 673.692 458.289 681.213C459.798 684.966 461.225 688.208 462.488 690.662C463.117 691.886 463.737 692.977 464.334 693.856C464.875 694.653 465.607 695.598 466.507 696.159L470.347 688.095ZM443.565 598.434C443.563 598.52 443.513 598.733 443.418 598.887C443.373 598.959 443.462 598.782 443.923 598.472C444.906 597.812 446.654 597.157 449.262 596.692C454.381 595.779 461.417 595.821 468.805 596.364C483.501 597.444 498.694 600.428 500.706 600.832L502.805 592.076C500.751 591.664 485.294 588.625 470.254 587.519C462.774 586.97 455.171 586.878 449.318 587.922C446.439 588.436 443.617 589.282 441.376 590.787C440.226 591.559 439.04 592.63 438.11 594.135C437.13 595.721 436.585 597.55 436.532 599.453L443.565 598.434ZM500.153 600.595C501.222 601.332 507.01 605.479 511.917 611.926C516.954 618.544 520.252 626.491 518.394 634.901L525.158 636.044C528.033 623.031 522.697 612.361 517.335 605.317C511.842 598.1 505.466 593.54 504.208 592.673L500.153 600.595ZM500.706 600.832C500.65 600.821 500.549 600.795 500.426 600.743C500.302 600.691 500.208 600.633 500.153 600.595L504.208 592.673C503.761 592.365 503.309 592.177 502.805 592.076L500.706 600.832ZM525.218 635.565C525.212 635.746 525.189 635.905 525.158 636.044L518.394 634.901C518.28 635.418 518.205 635.968 518.187 636.528L525.218 635.565Z" fill="black" id="Rectangle 30"></path>
      </g>
      <g id="Rectangle 31">
        <path d="M530.74 699.575C530.477 700.03 530.079 700.354 529.645 700.517C498.587 712.2 476.951 711.99 458.473 695.509C458.291 695.347 458.142 695.127 458.044 694.882C454.495 686.064 455.48 687.46 446.84 648.743C446.425 646.887 448.548 644.563 450.156 644.995C466.559 649.406 512.723 649.199 520.297 637.219C526.828 626.887 541.797 680.442 530.74 699.575Z" fill="#1B2580" id="Rectangle 31"></path>
        <path d="M520.297 637.219L523.134 639.384L523.134 639.384L520.297 637.219ZM446.84 648.743L450.413 647.053L446.84 648.743ZM450.156 644.995L451.516 640.799L450.156 644.995ZM458.473 695.509L460.992 691.943L458.473 695.509ZM458.044 694.882L461.424 692.567L458.044 694.882ZM529.645 700.517L529.054 696.445L529.645 700.517ZM530.74 699.575L527.791 697.595L530.74 699.575ZM529.054 696.445C498.616 707.894 478.323 707.4 460.992 691.943L455.954 699.076C475.58 716.58 498.558 716.505 530.236 704.589L529.054 696.445ZM461.424 692.567C458.036 684.147 459.139 686.152 450.413 647.053L443.266 650.432C451.821 688.769 450.954 687.981 454.663 697.197L461.424 692.567ZM448.796 649.191C457.424 651.511 473.43 652.553 488.155 651.542C495.541 651.035 502.793 650.001 508.769 648.271C511.754 647.406 514.546 646.334 516.928 644.985C519.257 643.666 521.556 641.88 523.134 639.384L517.46 635.054C517.144 635.553 516.344 636.394 514.634 637.362C512.978 638.3 510.792 639.175 508.128 639.946C502.806 641.487 496.072 642.475 488.919 642.966C474.569 643.951 459.29 642.89 451.516 640.799L448.796 649.191ZM523.134 639.384C523.137 639.378 523.065 639.494 522.898 639.647C522.721 639.81 522.473 639.979 522.173 640.09C521.874 640.199 521.617 640.215 521.432 640.197C521.343 640.188 521.277 640.172 521.235 640.159C521.193 640.146 521.172 640.135 521.172 640.135C521.171 640.135 521.188 640.143 521.22 640.165C521.253 640.188 521.298 640.222 521.355 640.272C521.472 640.373 521.621 640.524 521.801 640.739C522.164 641.174 522.587 641.8 523.054 642.638C524.956 646.062 526.991 651.972 528.537 659.022C530.072 666.027 531.057 673.848 531.01 680.97C530.962 688.273 529.832 694.063 527.791 697.595L533.689 701.555C537.176 695.52 538.321 687.441 538.372 679.644C538.424 671.666 537.332 663.157 535.691 655.673C534.06 648.235 531.819 641.497 529.424 637.187C528.285 635.138 526.824 633.094 524.977 632.159C523.975 631.651 522.614 631.35 521.051 631.923C519.466 632.503 518.277 633.761 517.46 635.054L523.134 639.384ZM450.413 647.053C450.528 647.566 450.444 648.049 450.334 648.361C450.234 648.646 450.113 648.804 450.048 648.876C449.982 648.95 449.875 649.046 449.699 649.125C449.513 649.208 449.182 649.294 448.796 649.191L451.516 640.799C449.138 640.16 446.823 641.592 445.431 643.145C444.039 644.699 442.607 647.483 443.266 650.432L450.413 647.053ZM460.992 691.943C461.192 692.121 461.33 692.333 461.424 692.567L454.663 697.197C454.954 697.92 455.391 698.573 455.954 699.076L460.992 691.943ZM530.236 704.589C531.476 704.123 532.778 703.131 533.689 701.555L527.791 697.595C528.175 696.929 528.681 696.585 529.054 696.445L530.236 704.589Z" fill="black" id="Rectangle 31"></path>
      </g>
      <g id="Rectangle 37">
        <path d="M514.379 775.835C514.239 776.126 514.159 776.448 514.125 776.762C510.666 808.781 464.805 780.231 446.374 763.851C446.191 763.688 446.048 763.484 445.967 763.226C443.078 754.017 465.034 734.048 458.442 694.338C458.128 692.443 460.23 690.231 461.787 690.797C477.09 696.36 519.364 703.017 531.8 691.394C532.93 690.337 534.644 690.185 535.172 691.512C545.367 717.169 522.368 759.259 514.379 775.835Z" fill="#1B2580" id="Rectangle 37"></path>
        <path d="M531.8 691.394L533.801 694.574L531.8 691.394ZM458.442 694.338L454.823 695.794L458.442 694.338ZM461.787 690.797L460.195 694.92L461.787 690.797ZM446.374 763.851L443.859 767.421L446.374 763.851ZM445.967 763.226L449.451 761.2L445.967 763.226ZM514.125 776.762L517.776 776.607L514.125 776.762ZM514.379 775.835L511.238 774.219L514.379 775.835ZM510.473 776.918C510.108 780.294 509.242 782.359 508.32 783.639C507.426 784.881 506.157 785.835 504.288 786.413C500.29 787.65 494.448 786.886 487.459 784.335C473.702 779.315 457.936 768.321 448.889 760.281L443.859 767.421C453.243 775.761 469.622 787.232 484.268 792.578C491.481 795.21 498.905 796.603 505.055 794.7C508.259 793.708 511.285 791.767 513.632 788.505C515.953 785.282 517.276 781.236 517.776 776.607L510.473 776.918ZM449.451 761.2C449.284 760.667 449.311 759.364 450.903 755.47C451.637 753.677 452.535 751.703 453.597 749.313C454.637 746.971 455.785 744.336 456.91 741.433C461.47 729.662 465.531 713.783 462.062 692.883L454.823 695.794C457.945 714.604 454.323 728.564 450.276 739.008C449.249 741.658 448.188 744.1 447.169 746.394C446.172 748.638 445.162 750.859 444.346 752.854C442.84 756.535 441.206 761.181 442.484 765.253L449.451 761.2ZM460.195 694.92C468.148 697.811 482.82 700.908 497.078 701.83C504.217 702.291 511.392 702.216 517.659 701.244C523.745 700.3 529.697 698.41 533.801 694.574L529.799 688.214C527.685 690.19 523.69 691.827 517.874 692.729C512.239 693.604 505.557 693.697 498.66 693.251C484.846 692.359 470.729 689.346 463.379 686.675L460.195 694.92ZM531.785 693.812C536.266 705.088 533.592 720.514 528.209 736.054C522.872 751.461 515.345 765.698 511.238 774.219L517.521 777.451C521.403 769.396 529.369 754.3 534.98 738.104C540.544 722.041 544.273 703.593 538.558 689.212L531.785 693.812ZM533.801 694.574C533.606 694.756 533.4 694.853 533.137 694.854C532.821 694.857 532.126 694.672 531.785 693.812L538.558 689.212C537.689 687.025 535.874 686.253 534.286 686.264C532.752 686.274 531.124 686.975 529.799 688.214L533.801 694.574ZM462.062 692.883C462.229 693.889 461.718 694.517 461.628 694.612C461.538 694.707 460.988 695.208 460.195 694.92L463.379 686.675C461.029 685.82 458.649 687.145 457.198 688.677C455.746 690.211 454.341 692.892 454.823 695.794L462.062 692.883ZM448.889 760.281C449.061 760.434 449.302 760.725 449.451 761.2L442.484 765.253C442.794 766.243 443.321 766.943 443.859 767.421L448.889 760.281ZM517.776 776.607C517.76 776.76 517.707 777.065 517.521 777.451L511.238 774.219C510.771 775.188 510.557 776.136 510.473 776.918L517.776 776.607Z" fill="black" id="Rectangle 37"></path>
      </g>
      <g id="Rectangle 27">
        <path d="M134.983 617C166.884 597.468 202.019 623.93 227.483 636.5C235.766 640.589 239.787 713.768 227.446 728.5C217.813 740 133.983 734 122.983 720C111.459 705.334 100.446 638.145 134.983 617Z" fill="#1B2580" id="Rectangle 27"></path>
        <path d="M134.983 617L137.071 620.411L134.983 617ZM227.483 636.5L229.253 632.913L229.253 632.913L227.483 636.5ZM227.446 728.5L224.38 725.932L227.446 728.5ZM122.983 720L126.128 717.529L126.128 717.529L122.983 720ZM137.071 620.411C151.562 611.539 166.91 612.936 182.292 618.475C189.992 621.248 197.565 625.015 204.887 628.931C212.093 632.785 219.279 636.911 225.712 640.087L229.253 632.913C222.955 629.804 216.2 625.909 208.66 621.876C201.236 617.906 193.256 613.921 185.002 610.948C168.475 604.997 150.304 602.929 132.894 613.589L137.071 620.411ZM225.712 640.087C225.268 639.868 225.283 639.676 225.599 640.178C225.873 640.613 226.221 641.328 226.605 642.388C227.372 644.499 228.112 647.496 228.768 651.222C230.073 658.64 230.954 668.423 231.2 678.605C231.445 688.786 231.052 699.219 229.86 707.944C229.263 712.308 228.478 716.162 227.508 719.306C226.519 722.512 225.426 724.683 224.38 725.932L230.512 731.069C232.552 728.634 234.032 725.296 235.153 721.664C236.292 717.97 237.153 713.658 237.786 709.026C239.052 699.759 239.45 688.879 239.197 678.413C238.945 667.947 238.039 657.748 236.646 649.835C235.953 645.895 235.116 642.389 234.126 639.659C233.632 638.297 233.056 637.006 232.367 635.913C231.72 634.886 230.733 633.644 229.253 632.913L225.712 640.087ZM224.38 725.932C223.998 726.387 222.659 727.289 219.561 728.16C216.653 728.977 212.814 729.602 208.252 730.008C199.148 730.819 187.654 730.719 176.034 729.824C164.417 728.93 152.833 727.253 143.547 724.968C138.898 723.824 134.925 722.551 131.847 721.196C128.658 719.791 126.884 718.491 126.128 717.529L119.837 722.471C121.832 725.01 125.084 726.959 128.622 728.517C132.272 730.125 136.727 731.528 141.635 732.736C151.462 735.154 163.501 736.883 175.42 737.801C187.337 738.719 199.294 738.838 208.962 737.977C213.785 737.547 218.161 736.863 221.725 735.862C225.098 734.914 228.486 733.488 230.512 731.069L224.38 725.932ZM126.128 717.529C123.788 714.551 121.102 708.283 119.026 699.748C116.987 691.359 115.65 681.249 115.71 670.953C115.831 650.048 121.646 629.855 137.071 620.411L132.894 613.589C113.782 625.29 107.835 649.264 107.71 670.907C107.646 681.884 109.066 692.643 111.253 701.638C113.404 710.486 116.416 718.116 119.837 722.471L126.128 717.529Z" fill="black" id="Rectangle 27"></path>
      </g>
      <g id="Rectangle 35">
        <path d="M464.968 669.413C464.576 668.575 463.667 668.145 462.767 668.355C432.843 675.331 376.62 685.906 335.595 673.649C334.464 673.311 333.279 673.995 333.042 675.151C328.189 698.849 325.668 736.671 333.498 748.47C355.454 781.558 452.942 779.497 467.483 744C474.126 727.781 475.315 691.516 464.968 669.413Z" fill="#1B2580" id="Rectangle 35"></path>
        <path d="M333.498 748.47L330.165 750.682L330.165 750.682L333.498 748.47ZM467.483 744L463.781 742.484L463.781 742.484L467.483 744ZM335.595 673.649L334.45 677.482L335.595 673.649ZM333.042 675.151L336.96 675.953L333.042 675.151ZM464.968 669.413L468.591 667.717L464.968 669.413ZM463.675 672.251C448.624 675.76 426.881 680.193 403.689 682.2C380.554 684.201 355.663 683.819 334.45 677.482L336.74 669.817C356.552 675.736 380.285 676.195 402.999 674.229C425.656 672.269 446.986 667.927 461.859 664.46L463.675 672.251ZM336.96 675.953C334.581 687.573 332.766 702.71 332.513 716.347C332.386 723.166 332.652 729.513 333.401 734.809C334.167 740.22 335.378 744.07 336.83 746.259L330.165 750.682C327.702 746.971 326.292 741.669 325.48 735.929C324.652 730.074 324.383 723.272 324.514 716.198C324.777 702.05 326.65 686.427 329.123 674.349L336.96 675.953ZM336.83 746.259C341.593 753.435 350.793 759.126 362.847 762.906C374.806 766.655 389.052 768.354 403.158 767.956C417.274 767.558 431.016 765.067 441.999 760.619C453.079 756.133 460.735 749.92 463.781 742.484L471.184 745.516C466.96 755.828 456.977 763.185 445.002 768.034C432.931 772.923 418.203 775.535 403.384 775.953C388.556 776.371 373.404 774.6 360.454 770.539C347.6 766.509 336.381 760.05 330.165 750.682L336.83 746.259ZM463.781 742.484C466.821 735.063 468.759 722.538 468.597 708.961C468.435 695.413 466.187 681.45 461.346 671.108L468.591 667.717C474.097 679.478 476.427 694.7 476.597 708.865C476.766 723.001 474.788 736.718 471.184 745.516L463.781 742.484ZM334.45 677.482C335.491 677.793 336.71 677.177 336.96 675.953L329.123 674.349C329.847 670.812 333.437 668.83 336.74 669.817L334.45 677.482ZM461.859 664.46C464.56 663.83 467.381 665.132 468.591 667.717L461.346 671.108C461.772 672.019 462.775 672.461 463.675 672.251L461.859 664.46Z" fill="black" id="Rectangle 35"></path>
      </g>
      <g id="Rectangle 29">
        <path d="M440.907 584.207C440.486 583.466 439.653 583.112 438.818 583.28L330.12 605.086C329.445 605.222 328.896 605.673 328.67 606.324C326.235 613.315 313.123 654.45 334.604 673.034C334.797 673.201 335.02 673.328 335.263 673.407C372.502 685.532 437.949 687.071 463.494 668.364C463.819 668.126 464.05 667.802 464.17 667.417C472.263 641.228 445.599 592.478 440.907 584.207Z" fill="#1B2580" id="Rectangle 29"></path>
        <path d="M463.494 668.364L465.857 671.591L463.494 668.364ZM464.17 667.417L460.348 666.236L464.17 667.417ZM334.604 673.034L331.987 676.059L334.604 673.034ZM335.263 673.407L334.025 677.21L335.263 673.407ZM330.12 605.086L329.334 601.165L329.334 601.165L330.12 605.086ZM328.67 606.324L324.892 605.008L328.67 606.324ZM438.818 583.28L439.604 587.202L438.818 583.28ZM440.907 584.207L444.386 582.233L440.907 584.207ZM439.604 587.202L330.907 609.008L329.334 601.165L438.031 579.358L439.604 587.202ZM332.447 607.639C331.276 611.001 327.522 622.641 326.66 635.597C325.785 648.736 327.953 661.991 337.221 670.009L331.987 676.059C319.773 665.492 317.757 648.889 318.677 635.066C319.609 621.061 323.628 608.638 324.892 605.008L332.447 607.639ZM336.502 669.603C354.616 675.501 379.831 678.88 403.692 678.448C415.6 678.233 427.062 677.07 437.048 674.845C447.082 672.609 455.366 669.358 461.13 665.137L465.857 671.591C458.849 676.723 449.373 680.295 438.788 682.653C428.154 685.023 416.137 686.224 403.836 686.447C379.277 686.891 353.149 683.437 334.025 677.21L336.502 669.603ZM460.348 666.236C462.106 660.547 462.053 653.304 460.666 645.205C459.29 637.163 456.66 628.617 453.592 620.508C447.456 604.292 439.731 590.241 437.428 586.181L444.386 582.233C446.775 586.444 454.728 600.904 461.074 617.677C464.247 626.064 467.059 635.132 468.552 643.855C470.035 652.521 470.28 661.193 467.991 668.598L460.348 666.236ZM461.13 665.137C460.767 665.403 460.484 665.795 460.348 666.236L467.991 668.598C467.617 669.809 466.872 670.848 465.857 671.591L461.13 665.137ZM337.221 670.009C337.013 669.829 336.768 669.69 336.502 669.603L334.025 677.21C333.272 676.965 332.581 676.573 331.987 676.059L337.221 670.009ZM330.907 609.008C331.525 608.884 332.177 608.415 332.447 607.639L324.892 605.008C325.615 602.932 327.366 601.559 329.334 601.165L330.907 609.008ZM438.031 579.358C440.461 578.87 443.064 579.905 444.386 582.233L437.428 586.181C437.908 587.028 438.845 587.354 439.604 587.202L438.031 579.358Z" fill="black" id="Rectangle 29"></path>
      </g>
      <g id="Rectangle 28">
        <path d="M243.686 612.938C269.62 577.688 336.159 568.61 350.254 612.938C359.116 640.805 362.68 654.165 359.116 682.355C352.591 733.96 249.169 691.473 236.007 672.4C222.218 652.42 228.92 633.008 243.686 612.938Z" fill="#1B2580" id="Rectangle 28"></path>
        <path d="M243.686 612.938L240.464 610.568L240.464 610.568L243.686 612.938ZM350.254 612.938L354.066 611.726L350.254 612.938ZM359.116 682.355L363.084 682.857L359.116 682.355ZM236.007 672.4L239.299 670.129L236.007 672.4ZM246.908 615.309C259.077 598.768 281.021 588.171 301.619 587.091C322.115 586.016 340.127 594.29 346.443 614.151L354.066 611.726C346.286 587.258 323.981 577.907 301.2 579.102C278.521 580.291 254.229 591.858 240.464 610.568L246.908 615.309ZM346.443 614.151C350.883 628.113 353.89 638.131 355.389 648.119C356.875 658.02 356.895 668.028 355.147 681.853L363.084 682.857C364.9 668.492 364.921 657.725 363.3 646.931C361.693 636.225 358.488 625.63 354.066 611.726L346.443 614.151ZM355.147 681.853C354.423 687.584 352.399 691.753 349.563 694.802C346.704 697.877 342.79 700.056 337.917 701.396C328.046 704.111 314.866 703.206 300.952 699.985C287.137 696.787 273.071 691.418 261.675 685.686C255.98 682.821 251.013 679.897 247.11 677.15C243.129 674.347 240.538 671.924 239.299 670.129L232.715 674.672C234.766 677.645 238.286 680.722 242.505 683.692C246.804 686.717 252.126 689.838 258.08 692.833C269.981 698.818 284.647 704.422 299.148 707.779C313.55 711.113 328.273 712.346 340.039 709.11C345.985 707.474 351.325 704.655 355.421 700.25C359.542 695.82 362.177 690.028 363.084 682.857L355.147 681.853ZM239.299 670.129C232.996 660.995 231.469 652.219 233.074 643.421C234.712 634.433 239.672 625.143 246.908 615.309L240.464 610.568C232.933 620.803 227.16 631.254 225.203 641.986C223.212 652.906 225.229 663.826 232.715 674.672L239.299 670.129Z" fill="black" id="Rectangle 28"></path>
      </g>
      <g id="Rectangle 34">
        <path d="M235.659 675.721C235.568 674.369 236.833 673.342 238.148 673.668C280.296 684.091 310.48 685.183 358.249 679.586C358.718 679.531 359.189 679.624 359.556 679.922C370.289 688.618 380.634 741.597 373.945 752.528C352.789 787.105 260.014 792.624 246.003 755.529C240.264 740.333 236.495 688.239 235.659 675.721Z" fill="#1B2580" id="Rectangle 34"></path>
        <path d="M373.945 752.528L370.533 750.44L373.945 752.528ZM246.003 755.529L242.261 756.943L246.003 755.529ZM358.249 679.586L357.783 675.614L358.249 679.586ZM359.556 679.922L362.074 676.814L359.556 679.922ZM237.188 677.551C279.883 688.109 310.561 689.201 358.714 683.559L357.783 675.614C310.4 681.165 280.708 680.072 239.109 669.785L237.188 677.551ZM357.037 683.029C357.808 683.654 358.848 684.929 360.045 687.053C361.209 689.119 362.384 691.741 363.525 694.797C365.806 700.906 367.844 708.467 369.359 716.16C370.874 723.854 371.841 731.548 372.03 737.913C372.124 741.099 372.021 743.868 371.723 746.096C371.413 748.407 370.938 749.779 370.533 750.44L377.357 754.616C378.624 752.545 379.289 749.87 379.652 747.157C380.026 744.361 380.129 741.13 380.026 737.676C379.821 730.762 378.785 722.618 377.208 714.614C375.631 706.609 373.488 698.611 371.02 691.999C369.786 688.695 368.445 685.666 367.015 683.127C365.617 680.646 363.986 678.364 362.074 676.814L357.037 683.029ZM370.533 750.44C365.868 758.065 356.981 764.458 345.502 769.091C334.093 773.697 320.538 776.391 307.14 776.908C293.726 777.426 280.716 775.752 270.345 771.83C259.938 767.895 252.69 761.912 249.745 754.116L242.261 756.943C246.322 767.694 255.926 774.931 267.515 779.313C279.141 783.709 293.274 785.45 307.449 784.902C321.641 784.355 336.122 781.505 348.496 776.51C360.801 771.543 371.444 764.279 377.357 754.616L370.533 750.44ZM249.745 754.116C248.465 750.726 247.203 744.97 246.031 737.766C244.874 730.651 243.848 722.403 242.969 714.195C241.214 697.785 240.066 681.693 239.65 675.454L231.667 675.988C232.087 682.267 233.242 698.481 235.015 715.046C235.901 723.326 236.945 731.734 238.135 739.051C239.311 746.279 240.672 752.734 242.261 756.943L249.745 754.116ZM358.714 683.559C358.39 683.597 357.703 683.568 357.037 683.029L362.074 676.814C360.675 675.68 359.045 675.466 357.783 675.614L358.714 683.559ZM239.109 669.785C235.257 668.832 231.39 671.838 231.667 675.988L239.65 675.454C239.746 676.901 238.41 677.853 237.188 677.551L239.109 669.785Z" fill="black" id="Rectangle 34"></path>
      </g>
      <g id="Rectangle 36">
        <path d="M111.531 687.15C111.976 685.848 113.585 685.415 114.685 686.242C145.226 709.182 206.043 707.288 234.192 697.286C234.709 697.103 235.282 697.119 235.663 697.514C243.061 705.187 239.435 774.188 227.446 788.5C217.813 800 133.983 794 122.983 780C111.723 765.67 98.599 724.924 111.531 687.15Z" fill="#1B2580" id="Rectangle 36"></path>
        <path d="M227.446 788.5L224.38 785.932L227.446 788.5ZM122.983 780L126.128 777.529L126.128 777.529L122.983 780ZM234.192 697.286L232.852 693.517L234.192 697.286ZM235.663 697.514L232.783 700.291L235.663 697.514ZM111.531 687.15L107.746 685.855L111.531 687.15ZM112.283 689.44C128.491 701.615 152.279 706.953 175.132 708.112C198.052 709.275 220.842 706.274 235.531 701.056L232.852 693.517C219.392 698.3 197.699 701.247 175.538 700.122C153.31 698.995 131.42 693.81 117.087 683.044L112.283 689.44ZM232.783 700.291C232.745 700.251 232.93 700.444 233.214 701.145C233.481 701.803 233.757 702.715 234.02 703.903C234.545 706.279 234.945 709.439 235.195 713.219C235.692 720.758 235.566 730.356 234.836 740.222C234.105 750.087 232.781 760.094 230.923 768.458C229.994 772.64 228.947 776.346 227.802 779.387C226.637 782.48 225.46 784.643 224.38 785.932L230.513 791.069C232.43 788.78 233.989 785.656 235.288 782.206C236.607 778.704 237.752 774.61 238.733 770.192C240.696 761.353 242.064 750.947 242.814 740.813C243.564 730.68 243.706 720.695 243.177 712.691C242.914 708.699 242.477 705.098 241.831 702.176C241.508 700.715 241.116 699.344 240.629 698.141C240.159 696.982 239.506 695.737 238.542 694.738L232.783 700.291ZM224.38 785.932C223.998 786.388 222.66 787.29 219.561 788.16C216.653 788.977 212.814 789.602 208.252 790.008C199.148 790.819 187.654 790.72 176.034 789.825C164.417 788.93 152.833 787.253 143.547 784.968C138.899 783.824 134.925 782.552 131.847 781.196C128.658 779.792 126.884 778.491 126.128 777.529L119.838 782.472C121.832 785.01 125.084 786.959 128.623 788.518C132.272 790.125 136.728 791.528 141.636 792.736C151.462 795.154 163.501 796.883 175.42 797.801C187.337 798.719 199.295 798.838 208.962 797.977C213.785 797.547 218.162 796.863 221.725 795.862C225.098 794.914 228.486 793.488 230.513 791.069L224.38 785.932ZM126.128 777.529C121.018 771.025 115.114 757.925 112.119 741.643C109.14 725.447 109.122 706.536 115.315 688.446L107.746 685.855C101.008 705.538 101.086 725.887 104.251 743.09C107.4 760.207 113.689 774.645 119.838 782.472L126.128 777.529ZM235.531 701.056C235.343 701.122 234.989 701.213 234.504 701.155C233.971 701.091 233.317 700.844 232.783 700.291L238.542 694.738C236.621 692.745 234.12 693.067 232.852 693.517L235.531 701.056ZM117.087 683.044C113.989 680.716 109.142 681.779 107.746 685.855L115.315 688.446C114.811 689.918 113.181 690.115 112.283 689.44L117.087 683.044Z" fill="black" id="Rectangle 36"></path>
      </g>
      <g id="Vector 131">
        <path d="M410.788 575C453.309 574.442 487.371 588.363 502.885 596.059C504.857 597.037 503.952 599.618 501.778 599.267C484.465 596.469 449.998 591.555 437.482 594.5C421.928 598.16 413.98 594.454 407.696 591.345C406.738 590.871 406.336 589.729 406.607 588.694C408.923 579.835 399.674 574.069 410.788 575Z" fill="#1B2580" id="Vector 131"></path>
        <path d="M502.885 596.059L501.107 599.642L501.107 599.642L502.885 596.059ZM410.788 575L410.454 578.986L410.647 579.002L410.84 578.999L410.788 575ZM406.607 588.694L410.477 589.706L410.477 589.706L406.607 588.694ZM407.696 591.345L409.47 587.76L409.47 587.76L407.696 591.345ZM437.482 594.5L438.399 598.394L438.399 598.394L437.482 594.5ZM501.778 599.267L501.14 603.216L501.14 603.216L501.778 599.267ZM504.662 592.475C488.832 584.623 454.123 570.431 410.735 571L410.84 578.999C452.495 578.453 485.909 592.103 501.107 599.642L504.662 592.475ZM411.121 571.013C409.62 570.888 408.267 570.856 407.093 570.979C405.979 571.097 404.58 571.396 403.374 572.299C401.959 573.359 401.337 574.837 401.209 576.22C401.101 577.389 401.344 578.478 401.528 579.184C402.383 582.469 403.55 584.573 402.737 587.682L410.477 589.706C411.98 583.957 409.681 578.748 409.269 577.168C409.136 576.657 409.2 576.683 409.175 576.956C409.13 577.442 408.852 578.191 408.169 578.702C407.695 579.058 407.415 578.99 407.931 578.935C408.388 578.887 409.177 578.879 410.454 578.986L411.121 571.013ZM405.922 594.93C409.108 596.506 413.092 598.432 418.397 599.396C423.725 600.365 430.16 600.332 438.399 598.394L436.566 590.606C429.251 592.328 423.934 592.272 419.828 591.525C415.7 590.775 412.568 589.293 409.47 587.76L405.922 594.93ZM438.399 598.394C441.023 597.776 445.113 597.519 450.305 597.608C455.42 597.696 461.326 598.111 467.441 598.711C479.666 599.909 492.518 601.822 501.14 603.216L502.416 595.318C493.725 593.914 480.687 591.971 468.221 590.749C461.991 590.138 455.852 589.702 450.443 589.609C445.111 589.518 440.2 589.751 436.566 590.606L438.399 598.394ZM402.737 587.682C402.082 590.187 402.946 593.458 405.922 594.93L409.47 587.76C409.972 588.008 410.275 588.414 410.413 588.767C410.544 589.099 410.551 589.423 410.477 589.706L402.737 587.682ZM501.107 599.642C500.839 599.509 500.42 599.182 500.167 598.583C499.923 598.007 499.921 597.385 500.108 596.848C500.293 596.314 500.663 595.866 501.144 595.588C501.648 595.297 502.128 595.271 502.416 595.318L501.14 603.216C504.046 603.685 506.743 602.124 507.664 599.475C508.607 596.762 507.37 593.819 504.662 592.475L501.107 599.642Z" fill="black" id="Vector 131"></path>
      </g>
      <g id="Vector 130">
        <path d="M134.767 613.357C131.111 599.67 179.237 568.119 190.991 578.996C191.325 579.304 191.72 579.542 192.167 579.62C226.142 585.521 274.946 587.12 269.483 605C264.348 621.806 230.445 636.432 225.97 638.299C225.645 638.435 225.355 638.481 225.006 638.43C217.98 637.397 135.709 625.083 134.916 614.678C134.883 614.239 134.881 613.783 134.767 613.357Z" fill="#1B2580" id="Vector 130"></path>
        <path d="M190.991 578.996L188.275 581.932L188.275 581.932L190.991 578.996ZM134.767 613.357L130.903 614.389L130.903 614.389L134.767 613.357ZM134.916 614.678L130.928 614.982L130.928 614.982L134.916 614.678ZM225.006 638.43L225.587 634.473L225.587 634.473L225.006 638.43ZM225.97 638.299L227.51 641.991L227.51 641.991L225.97 638.299ZM269.483 605L265.657 603.831L265.657 603.831L269.483 605ZM192.167 579.62L192.851 575.679L192.851 575.679L192.167 579.62ZM193.708 576.06C191.351 573.879 188.316 572.984 185.299 572.796C182.287 572.609 178.999 573.101 175.695 573.989C169.081 575.767 161.704 579.326 154.964 583.583C148.218 587.844 141.86 592.963 137.365 598.03C135.122 600.558 133.227 603.201 132.017 605.834C130.824 608.428 130.111 611.426 130.903 614.389L138.632 612.324C138.509 611.866 138.5 610.884 139.285 609.175C140.053 607.506 141.41 605.524 143.349 603.339C147.216 598.981 152.938 594.325 159.236 590.347C165.54 586.365 172.17 583.221 177.772 581.714C180.576 580.961 182.947 580.665 184.802 580.781C186.653 580.896 187.694 581.394 188.275 581.932L193.708 576.06ZM130.928 614.982C131.078 616.946 132.14 618.442 133.123 619.446C134.132 620.477 135.41 621.357 136.745 622.118C139.426 623.648 143.025 625.085 147.079 626.43C155.235 629.137 165.992 631.721 176.804 633.984C198.471 638.518 220.892 641.868 224.424 642.388L225.587 634.473C222.094 633.959 199.866 630.636 178.443 626.153C167.71 623.908 157.312 621.398 149.599 618.837C145.719 617.549 142.706 616.309 140.709 615.17C139.705 614.597 139.127 614.144 138.84 613.851C138.528 613.531 138.854 613.711 138.905 614.375L130.928 614.982ZM227.51 641.991C229.827 641.025 239.644 636.806 249.585 630.653C254.553 627.577 259.659 623.952 263.899 619.933C268.09 615.96 271.733 611.322 273.308 606.169L265.657 603.831C264.664 607.08 262.144 610.573 258.395 614.127C254.694 617.636 250.082 620.936 245.374 623.851C235.96 629.678 226.589 633.707 224.43 634.607L227.51 641.991ZM273.308 606.169C274.262 603.048 274.079 600.003 272.705 597.237C271.388 594.59 269.156 592.55 266.63 590.945C261.649 587.78 254.394 585.605 246.451 583.906C238.402 582.184 229.147 580.855 219.888 579.597C210.569 578.331 201.251 577.138 192.851 575.679L191.482 583.561C200.07 585.052 209.594 586.272 218.811 587.524C228.087 588.784 237.062 590.079 244.778 591.729C252.599 593.403 258.645 595.349 262.339 597.697C264.152 598.849 265.101 599.913 265.541 600.798C265.922 601.566 266.07 602.481 265.657 603.831L273.308 606.169ZM224.424 642.388C225.577 642.557 226.599 642.371 227.51 641.991L224.43 634.607C224.511 634.574 224.688 634.509 224.936 634.474C225.191 634.438 225.417 634.448 225.587 634.473L224.424 642.388ZM130.903 614.389C130.873 614.278 130.876 614.235 130.886 614.352C130.891 614.409 130.896 614.476 130.902 614.586C130.908 614.682 130.917 614.832 130.928 614.982L138.905 614.375C138.902 614.334 138.872 613.226 138.632 612.324L130.903 614.389ZM188.275 581.932C188.989 582.593 190.06 583.314 191.482 583.561L192.851 575.679C193.379 575.77 193.66 576.015 193.708 576.06L188.275 581.932Z" fill="black" id="Vector 130"></path>
      </g>
      <g id="Vector 129">
        <path d="M343.152 603.9C330.508 604.588 255.352 607.905 211.996 592.293C197.065 586.917 191.214 581.26 190.622 576.5C189.345 566.22 184.518 534.546 197.765 537.418C197.985 537.466 198.203 537.562 198.391 537.686C241.007 565.8 328.092 560.336 342.838 559.18C344.013 559.088 344.982 560.019 344.982 561.198V601.92C344.982 602.974 344.204 603.843 343.152 603.9Z" fill="#1B2580" id="Vector 129"></path>
        <path d="M211.996 592.293L213.352 588.53L213.352 588.53L211.996 592.293ZM343.152 603.9L342.934 599.906L342.934 599.906L343.152 603.9ZM342.838 559.18L342.525 555.192L342.525 555.192L342.838 559.18ZM198.391 537.686L196.188 541.025L196.188 541.025L198.391 537.686ZM197.765 537.418L196.917 541.327L196.917 541.327L197.765 537.418ZM190.622 576.5L186.653 576.993L186.653 576.993L190.622 576.5ZM210.641 596.057C232.927 604.081 263.071 607.167 288.93 608.206C314.893 609.249 336.981 608.242 343.369 607.894L342.934 599.906C336.679 600.246 314.866 601.241 289.252 600.212C263.533 599.179 234.422 596.117 213.352 588.53L210.641 596.057ZM348.982 601.92V561.198H340.982V601.92H348.982ZM342.525 555.192C335.247 555.763 310.007 557.403 281.342 555.419C252.49 553.421 220.976 547.793 200.594 534.347L196.188 541.025C218.422 555.692 251.758 561.39 280.789 563.4C310.007 565.422 335.683 563.753 343.15 563.168L342.525 555.192ZM198.613 533.509C196.199 532.986 193.821 533.188 191.703 534.331C189.645 535.441 188.256 537.21 187.317 539.05C185.507 542.6 184.898 547.357 184.749 551.896C184.447 561.134 186.034 572.01 186.653 576.993L194.592 576.006C193.934 570.71 192.468 560.609 192.745 552.158C192.886 547.852 193.474 544.587 194.444 542.685C194.896 541.798 195.293 541.484 195.501 541.372C195.65 541.292 196.02 541.133 196.917 541.327L198.613 533.509ZM186.653 576.993C187.13 580.828 189.62 584.285 193.457 587.307C197.324 590.354 202.958 593.29 210.641 596.057L213.352 588.53C206.104 585.92 201.347 583.339 198.408 581.023C195.438 578.684 194.707 576.932 194.592 576.006L186.653 576.993ZM348.982 561.198C348.982 557.783 346.121 554.911 342.525 555.192L343.15 563.168C341.906 563.265 340.982 562.255 340.982 561.198H348.982ZM343.369 607.894C346.666 607.714 348.982 604.972 348.982 601.92H340.982C340.982 600.975 341.742 599.971 342.934 599.906L343.369 607.894ZM200.594 534.347C200.032 533.977 199.36 533.671 198.613 533.509L196.917 541.327C196.61 541.261 196.373 541.147 196.188 541.025L200.594 534.347Z" fill="black" id="Vector 129"></path>
      </g>
      <g id="Vector 132">
        <path d="M348.244 604.519C355.736 605.152 385.356 606.832 402.809 595.802C409.134 591.805 411.612 587.6 411.863 584.061C412.408 576.354 413.894 553.583 408.691 555.07C390.992 560.127 356.585 563.559 348.306 564.334C347.273 564.43 346.482 565.296 346.482 566.334V602.567C346.482 603.584 347.231 604.433 348.244 604.519Z" fill="#1B2580" id="Vector 132"></path>
        <path d="M402.809 595.802L404.946 599.183L404.946 599.183L402.809 595.802ZM348.244 604.519L347.907 608.505L347.907 608.505L348.244 604.519ZM348.306 564.334L348.679 568.316L348.679 568.316L348.306 564.334ZM408.691 555.07L407.592 551.223L408.691 555.07ZM411.863 584.061L407.873 583.779L407.873 583.779L411.863 584.061ZM404.946 599.183C395.397 605.219 382.849 607.624 372.124 608.52C361.294 609.425 351.772 608.831 347.907 608.505L348.581 600.533C352.208 600.839 361.242 601.402 371.458 600.548C381.78 599.685 392.769 597.416 400.673 592.421L404.946 599.183ZM342.482 602.567V566.334H350.482V602.567H342.482ZM347.933 560.351C356.327 559.565 390.324 556.158 407.592 551.223L409.79 558.916C391.659 564.097 356.843 567.552 348.679 568.316L347.933 560.351ZM407.592 551.223C408.584 550.94 409.691 550.902 410.797 551.252C411.877 551.594 412.696 552.222 413.286 552.863C414.379 554.049 414.956 555.57 415.305 556.791C416.031 559.336 416.323 562.696 416.43 565.987C416.649 572.691 416.125 580.503 415.853 584.344L407.873 583.779C408.146 579.912 408.638 572.485 408.435 566.248C408.331 563.068 408.053 560.533 407.612 558.986C407.376 558.161 407.221 558.086 407.401 558.282C407.535 558.427 407.853 558.711 408.383 558.879C408.94 559.055 409.448 559.013 409.79 558.916L407.592 551.223ZM415.853 584.344C415.479 589.626 411.868 594.809 404.946 599.183L400.673 592.421C406.399 588.802 407.745 585.575 407.873 583.779L415.853 584.344ZM342.482 566.334C342.482 563.226 344.851 560.639 347.933 560.351L348.679 568.316C349.696 568.221 350.482 567.367 350.482 566.334H342.482ZM347.907 608.505C344.734 608.236 342.482 605.571 342.482 602.567H350.482C350.482 601.596 349.729 600.63 348.581 600.533L347.907 608.505Z" fill="black" id="Vector 132"></path>
      </g>
      <path id="Vector 145" opacity="0.6" d="M366.469 576.467C382.191 576.415 388.968 577.781 398.887 572.16C400.88 571.03 403.537 572.318 403.473 574.609C403.454 575.297 403.405 576.096 403.328 577.359C403.285 578.074 402.992 578.759 402.469 579.251C394.931 586.338 382.186 587.174 366.113 586.121C364.691 586.027 363.564 584.916 363.515 583.492C363.478 582.399 363.463 580.967 363.521 579.259C363.574 577.687 364.896 576.472 366.469 576.467Z" fill="white"></path>
      <g id="Vector 127">
        <path d="M343.07 569.042C330.179 569.287 255.176 570.094 211.87 556.872C164.376 542.37 208.662 525.468 222.027 538.199C232.488 548.165 312.915 554.115 343.06 554.952C344.147 554.982 344.982 555.869 344.982 556.957V567.055C344.982 568.138 344.153 569.022 343.07 569.042Z" fill="#1B2580" id="Vector 127"></path>
        <path d="M211.87 556.872L213.038 553.046L213.038 553.046L211.87 556.872ZM343.07 569.042L343.146 573.041L343.146 573.041L343.07 569.042ZM222.027 538.199L219.268 541.096L219.268 541.096L222.027 538.199ZM343.06 554.952L342.949 558.95L342.949 558.95L343.06 554.952ZM210.702 560.697C232.844 567.458 262.829 570.578 288.655 572.001C314.567 573.429 336.648 573.165 343.146 573.041L342.994 565.043C336.601 565.164 314.735 565.426 289.096 564.013C263.371 562.596 234.201 559.508 213.038 553.046L210.702 560.697ZM348.982 567.055V556.957H340.982V567.055H348.982ZM224.786 535.303C220.385 531.111 213.898 529.684 208.107 529.707C202.274 529.73 196.154 531.22 191.939 533.975C189.831 535.352 187.818 537.3 186.909 539.925C185.925 542.765 186.473 545.695 188.228 548.288C189.886 550.737 192.609 552.91 196.19 554.886C199.818 556.888 204.6 558.834 210.702 560.697L213.038 553.046C207.266 551.284 203.043 549.53 200.054 547.881C197.019 546.207 195.515 544.78 194.854 543.804C194.291 542.973 194.43 542.652 194.468 542.543C194.58 542.219 195.019 541.518 196.314 540.672C198.904 538.98 203.394 537.725 208.139 537.707C212.927 537.688 216.987 538.922 219.268 541.096L224.786 535.303ZM343.171 550.954C328.208 550.538 300.678 548.849 275.61 546.024C263.07 544.611 251.234 542.923 241.927 540.987C237.268 540.018 233.331 539.005 230.293 537.962C227.103 536.868 225.423 535.909 224.786 535.303L219.268 541.096C221.247 542.981 224.369 544.388 227.697 545.53C231.177 546.723 235.475 547.816 240.298 548.819C249.956 550.828 262.072 552.549 274.714 553.973C300.011 556.824 327.766 558.529 342.949 558.95L343.171 550.954ZM348.982 556.957C348.982 553.775 346.494 551.046 343.171 550.954L342.949 558.95C341.799 558.919 340.982 557.963 340.982 556.957H348.982ZM343.146 573.041C346.508 572.978 348.982 570.215 348.982 567.055H340.982C340.982 566.06 341.797 565.066 342.994 565.043L343.146 573.041Z" fill="black" id="Vector 127"></path>
      </g>
      <path id="Vector 134" opacity="0.6" d="M254.26 688.239C247.185 685.913 248.695 701.241 254.065 706.023C254.193 706.138 254.334 706.227 254.493 706.293C262.038 709.418 282.301 701.166 302.749 701.275C326.972 701.405 351.457 709.103 355.375 706.389C355.544 706.271 355.654 706.1 355.721 705.905C356.723 702.981 357.699 689.622 351.912 690.732C336.311 693.724 278.528 696.217 254.26 688.239Z" fill="white"></path>
      <path id="Vector 138" opacity="0.6" d="M180.908 586.91C176.766 583.427 167.06 589.79 169.563 595.083C176.105 608.915 239.049 622.596 241.847 618.787C243.162 616.997 258.403 609.855 254.144 609.99C228.853 610.792 194.949 598.712 180.908 586.91Z" fill="white"></path>
      <path id="Vector 139" opacity="0.6" d="M137.306 631.162C132.541 627.495 127.632 644.297 130.78 650.457C135.012 658.735 148.894 651.591 165.127 654.112C180.153 656.445 197.122 668.376 212.65 665.496C213.258 665.384 213.762 664.976 213.974 664.395C215.471 660.301 218.812 647.572 214.607 648.204C202.665 650 153.457 643.593 137.306 631.162Z" fill="white"></path>
      <path id="Vector 137" opacity="0.6" d="M276.553 612.052C274.438 615.257 272.154 617.611 269.676 620.481C268.81 621.482 269.185 622.994 270.459 623.355C286.1 627.784 334.465 628.07 341.982 622.5C343.338 621.495 342.545 612.172 339.218 612.761C330.753 614.259 299.348 613.862 278.553 611.117C277.762 611.013 276.993 611.386 276.553 612.052Z" fill="white"></path>
      <path id="Vector 144" opacity="0.6" d="M365.785 613.883C360.327 614.114 362.268 623.635 367.835 624.6C384.114 627.421 431.996 614.739 440.983 607.39C441.844 606.686 429.295 608.652 421.983 607.39C417.792 606.667 413.273 603.968 411.483 604.5C400.826 607.668 392.624 612.745 365.785 613.883Z" fill="white"></path>
      <path id="Vector 135" opacity="0.6" d="M381.558 690.271C377.026 693.063 378.225 701.561 382.714 704.72C388.827 709.023 407.92 699.609 423.536 699.866C439.085 700.121 462.394 705.918 462.845 700.668C463.046 698.664 459.564 682.89 455.347 684.47C435.915 693.052 400.039 692.775 382.788 690.068C382.356 690.001 381.913 690.052 381.558 690.271Z" fill="white"></path>
      <path id="Vector 140" opacity="0.6" d="M504.713 608.793C505.658 612.655 505.992 615.365 504.808 618.561C504.718 618.805 504.571 619.02 504.352 619.151C500.652 621.364 491.253 613.883 483.516 613.936C475.675 613.991 469.52 621.669 466.661 617.653C466.532 617.472 466.45 617.268 466.383 617.064C465.529 614.453 461.328 605.236 463.439 604.794C470.06 603.409 499.744 606.628 501.28 606.796C501.33 606.802 501.366 606.807 501.415 606.818C501.878 606.915 504.396 607.499 504.713 608.793Z" fill="white"></path>
      <path id="Vector 141" opacity="0.6" d="M473.849 659.713C472.79 665.103 476.174 668.854 478.492 673.075C478.715 673.482 479.067 673.808 479.514 673.939C486.894 676.089 493.233 667.651 501.046 666.621C510.867 665.327 519.531 670.846 523.599 667.801C524.017 667.488 524.2 666.966 524.195 666.455C524.122 658.149 523.192 648.923 520.686 650.317C501.448 657.853 501.08 657.997 475.745 658.235C474.861 658.243 474.022 658.835 473.849 659.713Z" fill="white"></path>
      <path id="Vector 142" opacity="0.6" d="M328.587 577.661C281.377 575.765 238.298 577.8 202.773 561.827C200.875 560.974 198.509 562.186 198.601 564.265C198.642 565.181 198.808 565.953 199.039 567.768C199.153 568.666 199.637 569.476 200.412 569.945C218.409 580.844 258.745 591.409 329.044 587.069C330.421 586.984 331.549 585.958 331.569 584.578C331.584 583.517 331.548 582.087 331.386 580.271C331.256 578.821 330.043 577.72 328.587 577.661Z" fill="white"></path>
      <path id="Vector 118" d="M339.452 593.306L344.304 570.935C344.701 569.103 347.175 568.775 348.035 570.441L358.542 590.778C361.866 597.212 357.638 604.967 350.43 605.66C343.532 606.323 337.984 600.079 339.452 593.306Z" fill="white" stroke="black" stroke-width="8" stroke-linecap="round"></path>
      <g id="Vector 128">
        <path d="M346.482 569.5C346.482 569.5 413.982 571 409.982 555.5C384.482 555.5 346.482 555.5 346.482 555.5V569.5Z" fill="#1B2580" id="Vector 128"></path>
        <path d="M409.982 555.5L409.982 551.5L413.081 551.5L413.855 554.5L409.982 555.5ZM346.482 569.5L346.394 573.499L342.482 573.412V569.5H346.482ZM346.482 555.5H342.482V551.5L346.482 551.5L346.482 555.5ZM413.855 554.5C414.779 558.081 413.48 561.163 411.211 563.4C409.128 565.453 406.168 566.906 403.082 567.997C396.833 570.207 388.366 571.507 380.112 572.294C371.781 573.089 363.354 573.389 357.032 573.491C353.865 573.543 351.214 573.545 349.352 573.534C348.42 573.528 347.685 573.52 347.181 573.512C346.929 573.509 346.734 573.505 346.602 573.503C346.535 573.502 346.485 573.501 346.45 573.5C346.432 573.5 346.419 573.499 346.409 573.499C346.405 573.499 346.401 573.499 346.398 573.499C346.397 573.499 346.396 573.499 346.395 573.499C346.394 573.499 346.394 573.499 346.482 569.5C346.571 565.501 346.571 565.501 346.571 565.501C346.572 565.501 346.572 565.501 346.573 565.501C346.574 565.501 346.576 565.501 346.58 565.501C346.587 565.501 346.598 565.501 346.613 565.502C346.643 565.502 346.689 565.503 346.75 565.504C346.873 565.506 347.057 565.51 347.298 565.513C347.78 565.52 348.492 565.529 349.398 565.534C351.212 565.545 353.803 565.543 356.902 565.492C363.111 565.392 371.309 565.098 379.352 564.33C387.474 563.555 395.131 562.324 400.414 560.455C403.094 559.508 404.75 558.535 405.594 557.703C406.25 557.056 406.185 556.794 406.109 556.499L413.855 554.5ZM342.482 569.5V555.5H350.482V569.5H342.482ZM409.982 559.5C397.232 559.5 381.357 559.5 368.67 559.5C362.326 559.5 356.779 559.5 352.818 559.5C350.838 559.5 349.254 559.5 348.165 559.5C347.621 559.5 347.2 559.5 346.915 559.5C346.773 559.5 346.665 559.5 346.592 559.5C346.556 559.5 346.528 559.5 346.51 559.5C346.501 559.5 346.494 559.5 346.489 559.5C346.487 559.5 346.485 559.5 346.484 559.5C346.484 559.5 346.483 559.5 346.483 559.5C346.483 559.5 346.482 559.5 346.482 555.5C346.482 551.5 346.483 551.5 346.483 551.5C346.483 551.5 346.484 551.5 346.484 551.5C346.485 551.5 346.487 551.5 346.489 551.5C346.494 551.5 346.501 551.5 346.51 551.5C346.528 551.5 346.556 551.5 346.592 551.5C346.665 551.5 346.773 551.5 346.915 551.5C347.2 551.5 347.621 551.5 348.165 551.5C349.254 551.5 350.838 551.5 352.818 551.5C356.779 551.5 362.326 551.5 368.67 551.5C381.357 551.5 397.232 551.5 409.982 551.5L409.982 559.5Z" fill="black" id="Vector 128"></path>
      </g>
    </g>
  </g>
  <defs>
    <clipPath id="clip0_1451_59698">
      <rect width="716" height="716" fill="white" transform="translate(0.482422)"></rect>
    </clipPath>
  </defs>
  <g id="Main Component">
    <g id="Ear Accessory">
      <circle id="Ellipse 266" cx="554.969" cy="368.049" r="2.40845" fill="black"></circle>
    </g>
  </g>
  <g id="Main Component">
    <g id="Head">
      <g id="Group 32">
        <path id="Vector 8" d="M495.164 141.427C494.75 139.269 492.65 137.871 490.473 138.305C488.295 138.739 486.866 140.841 487.279 143L495.164 141.427ZM455.414 209.099C453.241 208.691 451.128 210.115 450.694 212.279C450.261 214.443 451.671 216.528 453.845 216.935L455.414 209.099ZM507.384 219.201L510.267 216.396L507.384 219.201ZM505.55 222.562L506.335 218.644L505.55 222.562ZM491.544 198.473L491.148 194.51L491.544 198.473ZM490.3 201.857L493.183 199.052L490.3 201.857ZM519.375 192.536L515.978 194.695L519.375 192.536ZM517.862 195.602L517.466 191.639L517.862 195.602ZM487.279 143C487.795 145.694 489.651 149.755 491.84 154.018C494.121 158.46 497.056 163.663 500.109 168.865C506.22 179.279 512.896 189.86 515.978 194.695L522.771 190.377C519.707 185.569 513.091 175.084 507.054 164.794C504.033 159.646 501.181 154.587 498.997 150.333C496.72 145.899 495.433 142.829 495.164 141.427L487.279 143ZM517.466 191.639L491.148 194.51L491.939 202.436L518.257 199.565L517.466 191.639ZM487.418 204.661L504.502 222.005L510.267 216.396L493.183 199.052L487.418 204.661ZM506.335 218.644L455.414 209.099L453.845 216.935L504.766 226.48L506.335 218.644ZM504.502 222.005C503.132 220.615 504.405 218.282 506.335 218.644L504.766 226.48C510.556 227.566 514.374 220.566 510.267 216.396L504.502 222.005ZM491.148 194.51C486.137 195.056 483.914 201.105 487.418 204.661L493.183 199.052C494.351 200.238 493.61 202.254 491.939 202.436L491.148 194.51ZM515.978 194.695C515.169 193.426 516.023 191.796 517.466 191.639L518.257 199.565C522.679 199.083 525.174 194.146 522.771 190.377L515.978 194.695Z" fill="black"></path>
        <g id="Mask Group">
          <mask id="mask0_1451_78998" style="mask-type:alpha" maskUnits="userSpaceOnUse" x="210" y="50" width="308" height="131">
            <path id="Ellipse 49" d="M214.911 171.546L215.598 175.487L219.539 174.799L508.478 124.385L512.418 123.697L511.73 119.757C507.373 94.7826 486.007 75.9906 456.586 65.2653C427.047 54.4973 388.58 51.4907 348.123 58.5498C307.665 65.6089 272.49 81.4648 248.343 101.6C224.292 121.655 210.553 146.572 214.911 171.546Z" fill="#1E1E1E" stroke="black" stroke-width="8"></path>
          </mask>
          <g mask="url(#mask0_1451_78998)">
            <path id="Ellipse 50" d="M214.911 171.546L215.598 175.487L219.539 174.799L508.478 124.385L512.418 123.697L511.73 119.757C507.373 94.7826 486.007 75.9906 456.586 65.2653C427.047 54.4973 388.58 51.4907 348.123 58.5498C307.665 65.6089 272.49 81.4648 248.343 101.6C224.292 121.655 210.553 146.572 214.911 171.546Z" fill="#ED2146" stroke="black" stroke-width="8"></path>
            <path id="Vector 50" d="M317.022 155.311C306.657 124.676 310.022 77.9951 319.899 59.7265L215.947 55.8837L206.352 168.24C247.561 176.695 327.387 185.947 317.022 155.311Z" fill="black" fill-opacity="0.5"></path>
          </g>
        </g>
        <path id="Vector 380" d="M486.77 96.2854C466.72 77.719 420.066 60.725 394.694 64.9024C368.735 69.1763 420.736 81.6379 428.843 89.9935C436.95 98.3491 411.965 111.531 401.855 114.04C426.046 109.959 476.176 99.9655 486.309 97.9377C487.094 97.7806 487.357 96.8291 486.77 96.2854Z" fill="#F22B4F"></path>
        <g id="Mask Group_2">
          <path id="Rectangle 17" d="M213.538 226.956L216.702 224.641L213.538 226.956C215.233 229.273 217.614 231.022 220.333 231.946C222.109 232.55 223.887 232.643 225.734 232.55C227.494 232.462 229.609 232.183 232.116 231.852L232.272 231.831C261.976 227.912 329.23 218.8 376.171 210.624C428.288 201.546 504.115 185.129 527.872 179.925L528.002 179.896C529.183 179.638 530.291 179.395 531.209 179.115C532.212 178.808 533.295 178.37 534.302 177.565C535.744 176.413 536.8 174.841 537.32 173.069C537.685 171.827 537.677 170.649 537.58 169.602C537.49 168.639 537.293 167.509 537.082 166.301L537.059 166.169L529.227 121.278L529.199 121.117C528.72 118.376 528.32 116.08 527.839 114.235C527.337 112.313 526.663 110.519 525.444 108.936C523.588 106.526 521.014 104.795 518.082 103.985C516.155 103.452 514.238 103.505 512.267 103.766C510.375 104.016 508.095 104.512 505.371 105.104L505.211 105.138C474.997 111.702 409.334 125.714 362.773 133.824C316.774 141.836 251.083 150.767 220.671 154.787L220.508 154.809C217.748 155.174 215.435 155.479 213.571 155.884C211.629 156.306 209.808 156.905 208.175 158.059C205.691 159.814 203.855 162.315 202.924 165.211C202.313 167.113 202.286 169.029 202.465 171.008C202.637 172.907 203.038 175.203 203.516 177.944L203.544 178.105L210.063 215.467L210.09 215.622C210.529 218.133 210.898 220.25 211.341 221.965C211.807 223.762 212.428 225.439 213.538 226.956Z" fill="#ED2146" stroke="black" stroke-width="8"></path>
          <path id="Vector 50_2" d="M285.064 227.069C270.69 198.1 269.247 166.465 276.586 147.033C276.586 147.033 211.112 155.296 205.604 157.953C200.097 160.611 206.969 221.92 212.946 227.069C218.923 232.217 261.879 229.152 285.064 227.069Z" fill="black" fill-opacity="0.5"></path>
          <path id="Vector 38" d="M239.402 156.112C237.17 183.353 239.203 198.434 249.894 224.907" stroke="black" stroke-width="8" stroke-linecap="round"></path>
          <path id="Vector 40" d="M290.143 145.984C287.84 178.007 290.036 194.301 301.388 219.722" stroke="black" stroke-width="8" stroke-linecap="round"></path>
          <path id="Vector 42" d="M340.88 138.853C340.609 168.149 343.311 184.441 352.276 213.574" stroke="black" stroke-width="8" stroke-linecap="round"></path>
          <path id="Vector 44" d="M391.62 129.725C391.62 129.725 399.78 144.885 403.015 165.81C406.251 186.734 403.015 204.446 403.015 204.446" stroke="black" stroke-width="8" stroke-linecap="round"></path>
          <path id="Vector 46" d="M442.36 120.595C452.55 145.074 454.686 161.344 453.454 193.339" stroke="black" stroke-width="8" stroke-linecap="round"></path>
          <path id="Vector 48" d="M493.1 109.468C493.1 109.468 499.509 122.003 502.84 145.321C506.172 168.639 504.344 183.2 504.344 183.2" stroke="black" stroke-width="8" stroke-linecap="round"></path>
        </g>
      </g>
    </g>
  </g>
  <g id="Main Component">
    <g id="Nose">
      <g id="Group 61">
        <g id="Group 46">
          <path id="Vector 55 (Stroke)" fill-rule="evenodd" clip-rule="evenodd" d="M415.186 370.83C407.691 366.773 398.129 367.911 391.794 374.245C384.072 381.967 384.072 394.487 391.794 402.209L401.204 411.618C408.926 419.34 421.446 419.34 429.168 411.618L438.577 402.209C446.299 394.487 446.299 381.967 438.577 374.245C432.243 367.911 422.68 366.773 415.186 370.83Z" fill="#DB4A4A"></path>
          <path id="Vector 56 (Stroke)" fill-rule="evenodd" clip-rule="evenodd" d="M400.184 387.907C403.273 384.818 408.28 384.818 411.369 387.907L415.186 391.724L419.003 387.907C422.092 384.818 427.1 384.818 430.189 387.907C433.277 390.996 433.277 396.004 430.189 399.093L420.779 408.502C417.69 411.591 412.682 411.591 409.593 408.502L400.184 399.093C397.095 396.004 397.095 390.996 400.184 387.907Z" fill="black"></path>
        </g>
      </g>
    </g>
  </g>
  <g id="Main Component">
    <g id="Eyes">
      <circle id="Ellipse 23" cx="328.142" cy="307.714" r="46.2867" fill="#DB4A4A"></circle>
      <circle id="Ellipse 28" cx="494.244" cy="307.714" r="46.2867" fill="#DB4A4A"></circle>
      <g id="Group 84">
        <path id="Subtract" fill-rule="evenodd" clip-rule="evenodd" d="M306.935 300.116C306.935 294.047 315.84 292.553 321.904 292.79C323.987 292.871 326.218 292.775 328.552 292.674C330.394 292.594 332.299 292.512 334.246 292.512C334.891 292.512 335.533 292.514 336.171 292.516C339.591 292.528 342.891 292.539 345.882 292.214C351.454 291.608 359.096 293.25 359.363 298.848C359.383 299.268 359.393 299.691 359.393 300.116C359.393 314.602 347.65 326.345 333.164 326.345C318.678 326.345 306.935 314.602 306.935 300.116V300.116Z" fill="black"></path>
        <path id="Vector 84" d="M294.153 312.339C318.408 288.404 334.536 286.175 367.123 299.18" stroke="black" stroke-width="8" stroke-linecap="round"></path>
        <ellipse id="Ellipse 27" cx="347.891" cy="303.818" rx="5.4593" ry="6.65305" transform="rotate(89.3723 347.891 303.818)" fill="white"></ellipse>
      </g>
      <g id="Group 85">
        <path id="Subtract_2" fill-rule="evenodd" clip-rule="evenodd" d="M473.54 300.116C473.54 294.047 482.445 292.553 488.51 292.79C490.592 292.871 492.824 292.775 495.157 292.674C496.999 292.594 498.905 292.512 500.852 292.512C501.496 292.512 502.138 292.514 502.776 292.516C506.196 292.528 509.496 292.539 512.488 292.214C518.06 291.608 525.702 293.25 525.968 298.848C525.988 299.268 525.998 299.691 525.998 300.116C525.998 314.602 514.255 326.345 499.769 326.345C485.283 326.345 473.54 314.602 473.54 300.116V300.116Z" fill="black"></path>
        <path id="Vector 84_2" d="M460.759 312.339C485.014 288.404 501.141 286.175 533.729 299.18" stroke="black" stroke-width="8" stroke-linecap="round"></path>
        <ellipse id="Ellipse 27_2" cx="514.496" cy="303.818" rx="5.4593" ry="6.65305" transform="rotate(89.3723 514.496 303.818)" fill="white"></ellipse>
      </g>
    </g>
  </g>
  <g id="Main Component">
    <g id="Mouth">
      <g id="Group 80">
        <path id="Vector 151" d="M390.067 446.439L376.802 457.042C371.768 461.066 370.679 461.723 373.65 464.641C375.392 466.353 377.862 467.093 380.297 466.892L396.237 465.575C398.672 465.373 401.044 466.235 403.073 467.594C411.093 472.965 420.259 472.948 428.269 467.551C430.321 466.168 432.726 465.297 435.191 465.515L450.705 466.889C453.169 467.107 455.678 466.361 457.433 464.616C460.332 461.732 459.221 461.088 454.222 457.091L440.896 446.439C435.171 441.863 428.503 440.772 422.262 443.39C417.826 445.251 413.137 445.251 408.7 443.39C402.459 440.772 395.791 441.863 390.067 446.439Z" fill="#DB4A4A"></path>
        <path id="Vector 152" d="M415.99 469.279C400.162 469.279 386.998 466.5 380.911 464.958C378.572 464.365 375.889 464.45 374.397 466.347C371.195 470.419 372.012 476.806 376.965 479.688L400.524 493.399C410.198 499.028 422.154 499.006 431.807 493.341L455.044 479.704C459.976 476.81 460.778 470.435 457.576 466.372C456.086 464.481 453.41 464.394 451.076 464.982C444.993 466.515 431.824 469.279 415.99 469.279Z" fill="#DB4A4A"></path>
        <path id="Vector 14" d="M367.68 463.596C365.484 463.836 363.897 465.81 364.137 468.006C364.376 470.202 366.351 471.789 368.547 471.549L367.68 463.596ZM380.34 466.24L380.774 470.216L380.774 470.216L380.34 466.24ZM427.574 466.613L427.062 462.646L427.062 462.646L427.574 466.613ZM427.881 466.574L428.393 470.541L428.393 470.541L427.881 466.574ZM449.942 466.285L449.534 470.264L449.534 470.264L449.942 466.285ZM462.08 471.552C464.278 471.778 466.242 470.179 466.467 467.981C466.693 465.784 465.094 463.819 462.897 463.594L462.08 471.552ZM403.038 466.536L403.575 462.572L403.038 466.536ZM368.547 471.549L380.774 470.216L379.907 462.263L367.68 463.596L368.547 471.549ZM428.086 470.58L428.393 470.541L427.368 462.607L427.062 462.646L428.086 470.58ZM449.534 470.264L462.08 471.552L462.897 463.594L450.35 462.306L449.534 470.264ZM428.393 470.541C435.406 469.635 442.5 469.542 449.534 470.264L450.35 462.306C442.704 461.521 434.992 461.622 427.368 462.607L428.393 470.541ZM380.774 470.216C388.001 469.428 395.297 469.523 402.501 470.5L403.575 462.572C395.727 461.509 387.779 461.405 379.907 462.263L380.774 470.216ZM402.501 470.5C410.989 471.65 419.591 471.677 428.086 470.58L427.062 462.646C419.264 463.653 411.367 463.628 403.575 462.572L402.501 470.5Z" fill="black"></path>
      </g>
    </g>
  </g>
</svg>
